<?xml version="1.0" standalone="no"?><!DOCTYPE svg PUBLIC "-//W3C//DTD SVG 1.1//EN" "http://www.w3.org/Graphics/SVG/1.1/DTD/svg11.dtd"><svg t="1585901118208" class="icon" viewBox="0 0 1024 1024" version="1.1" xmlns="http://www.w3.org/2000/svg" p-id="8949" xmlns:xlink="http://www.w3.org/1999/xlink" width="200" height="200"><defs><style type="text/css"></style></defs><path d="M602 545c62.4 83.5 126.4 167.3 159.1 233l-83.2 138.6c-32.3-75.9-90.3-167.3-149.7-258.3C552.8 620.6 577.8 583 602 545zM455.3 320.5c-9.8-22.5-18.3-44.5-11.7-69.2 8-30 35.4-52.2 68-52.2 32.9 0 60.5 22.5 68.2 52.9 4 15.8 2.3 28.4-2.4 43.3C537.6 422.1 330.6 640 262 778l83.2 138.6c75.4-176.9 289.4-437.5 339.3-582.4 11-32.1 14.8-64 8.6-98.1-15.8-86-91-151.1-181.5-151.1C409.7 85 327 167.6 327 269.5c0 17.7 2.9 36.4 8 53.5 13.8 46.6 47 106.8 88.1 173 24.8-33.3 49.6-67.4 72.1-102.2-16.4-26.1-30.1-50.7-39.9-73.3z" fill="#d4237a" p-id="8950"></path></svg>