<?xml version="1.0" standalone="no"?><!DOCTYPE svg PUBLIC "-//W3C//DTD SVG 1.1//EN" "http://www.w3.org/Graphics/SVG/1.1/DTD/svg11.dtd"><svg t="1585901300204" class="icon" viewBox="0 0 1024 1024" version="1.1" xmlns="http://www.w3.org/2000/svg" p-id="9877" xmlns:xlink="http://www.w3.org/1999/xlink" width="200" height="200"><defs><style type="text/css"></style></defs><path d="M509.979 959.316c-247.308 0-447.794-200.486-447.794-447.794S262.671 63.728 509.979 63.728s447.794 200.486 447.794 447.794-200.485 447.794-447.794 447.794z m0-814.171c-202.346 0-366.377 164.031-366.377 366.377s164.031 366.377 366.377 366.377c202.342 0 366.377-164.031 366.377-366.377S712.321 145.145 509.979 145.145z m-40.708 610.628c-40.709 0-40.709-40.708-40.709-40.708l40.709-203.543s0-40.709-40.709-40.709c0 0-40.709 0-40.709-40.709h122.126s40.709 0 40.709 40.709-40.709 162.834-40.709 203.543 40.709 40.709 40.709 40.709h40.709c-0.001 0-0.001 40.708-122.126 40.708z m81.417-407.085c-22.483 0-40.709-18.225-40.709-40.709s18.225-40.709 40.709-40.709 40.709 18.225 40.709 40.709-18.226 40.709-40.709 40.709z" p-id="9878" fill="#1296db"></path></svg>